# xmcd
#
# Track frame offsets: 
#        182
#        13855
#        27370
#        40865
#
# Disc length: 720 seconds
#
# Revision: 0
# Processed by: cddbd v1.4PL0 Copyright (c) Steve Scherf et al.
# Submitted via: ExactAudioCopy v0.90b3
#
DISCID=2902ce04
DTITLE=David Ball - 4 Song Sampler
DYEAR=1900
DGENRE=Country
TTITLE0=Thinkin' Problem (Album Version)
TTITLE1=Look What Followed Me Home (Album Version)
TTITLE2=When The Thought Of You Catches Up With Me (Album Version)
TTITLE3=Blowin' Smoke (Album Version)
EXTD=
EXTT0=
EXTT1=
EXTT2=
EXTT3=
PLAYORDER=
